<?xml version="1.0" encoding="UTF-8" standalone="no"?>
<!-- Created with Inkscape (http://www.inkscape.org/) -->

<svg
   version="1.1"
   id="svg870"
   width="85"
   height="81"
   viewBox="0 0 85 81"
   sodipodi:docname="logo.png.svg"
   inkscape:version="1.1.2 (0a00cf5339, 2022-02-04, custom)"
   xmlns:inkscape="http://www.inkscape.org/namespaces/inkscape"
   xmlns:sodipodi="http://sodipodi.sourceforge.net/DTD/sodipodi-0.dtd"
   xmlns="http://www.w3.org/2000/svg"
   xmlns:svg="http://www.w3.org/2000/svg">
  <defs
     id="defs874" />
  <sodipodi:namedview
     id="namedview872"
     pagecolor="#ffffff"
     bordercolor="#666666"
     borderopacity="1.0"
     inkscape:pageshadow="2"
     inkscape:pageopacity="0.0"
     inkscape:pagecheckerboard="0"
     showgrid="false"
     inkscape:zoom="9.7407407"
     inkscape:cx="38.960076"
     inkscape:cy="40.5"
     inkscape:window-width="1920"
     inkscape:window-height="1011"
     inkscape:window-x="0"
     inkscape:window-y="0"
     inkscape:window-maximized="1"
     inkscape:current-layer="g876" />
  <g
     inkscape:groupmode="layer"
     inkscape:label="Image"
     id="g876">
    <path
       style="fill:#1a1a1a"
       d="M 6.7914252,64.265376 C 1.0689584,62.289545 2.3769165,55.41623 10.061909,47.078997 c 3.699464,-4.013445 4.07158,-4.923059 4.398816,-10.752632 0.653341,-11.639026 5.869323,-19.831466 15.779219,-24.783499 7.993194,-3.9942463 16.738395,-4.2345593 24.392954,-0.670304 3.400328,1.583323 5.608839,2.079167 6.654434,1.494023 3.322653,-1.85945 13.970791,-3.9951603 16.809913,-3.3715853 6.733916,1.4790163 6.015301,8.8583163 -1.698105,17.4374803 -4.355588,4.844463 -4.633511,5.497112 -4.836959,11.358687 -0.374608,10.792915 -6.04572,19.741316 -15.795281,24.923247 -5.921855,3.14749 -19.398201,3.225983 -25.149954,0.146485 -3.832413,-2.05188 -4.0481,-2.060683 -9,-0.367323 -6.875471,2.351147 -11.534851,2.90799 -14.8255208,1.7718 z m 13.1456568,-4.966979 3.199189,-1.31521 -2.632711,-3.5 c -1.44799,-1.925 -3.051331,-4.561411 -3.562979,-5.85869 -0.809706,-2.053006 -1.144127,-2.182605 -2.580419,-1 -3.199956,2.634758 -7.3167028,9.188523 -7.3167028,11.648019 0,2.388932 0.19535,2.466117 4.8472168,1.915172 2.66597,-0.315745 6.286852,-1.165926 8.046406,-1.889291 z m 30.331121,1.139183 c 8.63949,-2.3994 15.795051,-11.022941 17.323505,-20.877461 l 0.686026,-4.423069 -2.867137,2.247906 c -1.576926,1.236347 -4.417064,3.339228 -6.311418,4.673068 -3.042277,2.142108 -3.184509,2.425163 -1.218615,2.425163 2.393069,0 4.132188,2.78141 2.40785,3.850925 -0.575564,0.356991 -3.566136,0.494928 -6.645717,0.306525 -6.468723,-0.395743 -6.653331,-0.836381 -3.460185,-8.259051 2.143687,-4.983134 4.430436,-6.076526 4.281546,-2.04719 -0.04367,1.181835 0.204002,2.148791 0.550383,2.148791 0.346381,0 3.167178,-2.261543 6.268439,-5.025652 5.49056,-4.893657 5.609379,-5.109635 4.523956,-8.22328 -1.62648,-4.665724 -9.50972,-12.08261 -14.379397,-13.528745 -14.57249,-4.3275533 -29.297305,3.820613 -32.312636,17.880613 -0.612053,2.853905 -0.900794,5.400948 -0.641646,5.660095 0.445005,0.445006 3.123826,-1.412593 9.346793,-6.48143 l 2.723509,-2.218399 -2.823324,-0.0316 c -2.14206,-0.02398 -2.742002,-0.453873 -2.486305,-1.781601 0.18536,-0.9625 0.893356,-1.705 1.573324,-1.65 0.679968,0.055 3.486305,0.1675 6.236305,0.25 5.892268,0.176768 6.262572,1.268337 2.75,8.106356 -2.434931,4.740146 -4.366546,5.4306 -4.056341,1.449935 l 0.193659,-2.485104 -3.693659,2.946584 c -2.031512,1.620622 -4.9226,4.241544 -6.424639,5.824273 l -2.730979,2.877688 2.084668,4.213489 c 5.08517,10.27804 17.389536,15.424022 29.102035,12.171171 z m 25.94198,-39.354431 c 1.558302,-2.145022 2.833276,-5.020478 2.833276,-6.389903 0,-2.407438 -0.1738,-2.471496 -5.25,-1.935001 -2.8875,0.305175 -6.499488,1.036551 -8.026641,1.625281 l -2.776641,1.070417 3.526641,5.126834 c 1.939653,2.819759 3.526641,5.581439 3.526641,6.137067 0,1.492951 2.940716,-1.194057 6.166724,-5.634695 z"
       id="path3210" />
  </g>
</svg>
